<svg width="427" height="100" viewBox="0 0 427 100" fill="none" xmlns="http://www.w3.org/2000/svg">
<mask id="mask0" mask-type="alpha" maskUnits="userSpaceOnUse" x="0" y="0" width="100" height="100">
<path d="M50 100C77.6142 100 100 77.6142 100 50C100 22.3858 77.6142 0 50 0C22.3858 0 0 22.3858 0 50C0 77.6142 22.3858 100 50 100Z" fill="#FFF880"/>
</mask>
<g mask="url(#mask0)">
<path d="M50 100C77.6142 100 100 77.6142 100 50C100 22.3858 77.6142 0 50 0C22.3858 0 0 22.3858 0 50C0 77.6142 22.3858 100 50 100Z" fill="#FFF880"/>
<path d="M37.7273 100C58.5635 100 75.4545 83.1089 75.4545 62.2727C75.4545 41.4365 58.5635 24.5454 37.7273 24.5454C16.8911 24.5454 0 41.4365 0 62.2727C0 83.1089 16.8911 100 37.7273 100Z" fill="#FFF100"/>
<path d="M25.9091 100C40.2183 100 51.8182 88.4001 51.8182 74.0909C51.8182 59.7817 40.2183 48.1818 25.9091 48.1818C11.5999 48.1818 0 59.7817 0 74.0909C0 88.4001 11.5999 100 25.9091 100Z" fill="#FFE700"/>
<path d="M17.7273 100C27.5178 100 35.4545 92.0632 35.4545 82.2727C35.4545 72.4822 27.5178 64.5454 17.7273 64.5454C7.93678 64.5454 0 72.4822 0 82.2727C0 92.0632 7.93678 100 17.7273 100Z" fill="#FFDD00"/>
</g>
<path d="M118.2 41.5H132.825C138.502 41.5 142.575 42.5833 145.045 44.75C147.515 46.8733 148.75 49.8417 148.75 53.655C148.75 55.735 148.273 57.62 147.32 59.31C146.367 60.9567 144.893 62.3 142.9 63.34C145.37 64.3367 147.168 65.7667 148.295 67.63C149.465 69.4933 150.05 71.6817 150.05 74.195C150.05 78.3117 148.815 81.475 146.345 83.685C143.875 85.895 139.802 87 134.125 87H118.2V41.5ZM124.31 66.33V81.41H134.125C137.635 81.41 140.105 80.7817 141.535 79.525C142.965 78.2683 143.68 76.3833 143.68 73.87C143.68 71.3567 142.965 69.4717 141.535 68.215C140.105 66.9583 137.635 66.33 134.125 66.33H124.31ZM124.31 47.09V60.87H132.825C136.335 60.87 138.805 60.285 140.235 59.115C141.665 57.9017 142.38 56.19 142.38 53.98C142.38 51.77 141.665 50.08 140.235 48.91C138.805 47.6967 136.335 47.09 132.825 47.09H124.31Z" fill="black"/>
<path d="M180.283 61.455L176.708 68.15L165.723 87H158.183V54.5H164.033V80.045L167.608 73.35L178.593 54.5H186.133V87H180.283V61.455Z" fill="black"/>
<path d="M217.988 73.09H201.738V87H195.888V54.5H201.738V67.76H217.988V54.5H223.838V87H217.988V73.09Z" fill="black"/>
<path d="M233.593 54.5H245.943C250.319 54.5 253.461 55.3233 255.368 56.97C257.318 58.6167 258.293 60.805 258.293 63.535C258.293 64.8783 257.968 66.1133 257.318 67.24C256.668 68.3667 255.649 69.32 254.263 70.1C256.083 70.8367 257.426 71.8767 258.293 73.22C259.159 74.52 259.593 75.9717 259.593 77.575C259.593 80.5217 258.618 82.84 256.668 84.53C254.761 86.1767 251.619 87 247.243 87H233.593V54.5ZM239.443 72.96V81.67H247.243C249.583 81.67 251.208 81.3017 252.118 80.565C253.028 79.785 253.483 78.68 253.483 77.25C253.483 75.8633 253.028 74.8017 252.118 74.065C251.208 73.3283 249.583 72.96 247.243 72.96H239.443ZM239.443 59.83V67.89H245.943C248.326 67.89 249.951 67.5433 250.818 66.85C251.728 66.1133 252.183 65.1167 252.183 63.86C252.183 62.6033 251.728 61.6283 250.818 60.935C249.951 60.1983 248.326 59.83 245.943 59.83H239.443Z" fill="black"/>
<path d="M280.037 87.52C277.871 87.52 275.877 87.1733 274.057 86.48C272.281 85.7433 270.742 84.7033 269.442 83.36C268.186 82.0167 267.189 80.3917 266.452 78.485C265.759 76.5783 265.412 74.4117 265.412 71.985V69.515C265.412 67.1317 265.759 64.9867 266.452 63.08C267.189 61.1733 268.207 59.5483 269.507 58.205C270.807 56.8617 272.346 55.8217 274.122 55.085C275.899 54.3483 277.871 53.98 280.037 53.98C282.204 53.98 284.176 54.3483 285.952 55.085C287.772 55.7783 289.311 56.7967 290.567 58.14C291.867 59.4833 292.864 61.13 293.557 63.08C294.294 64.9867 294.662 67.1317 294.662 69.515V72.635H271.522C271.609 75.7983 272.432 78.1817 273.992 79.785C275.552 81.3883 277.567 82.19 280.037 82.19C282.594 82.19 284.457 81.735 285.627 80.825C286.797 79.915 287.707 78.615 288.357 76.925H294.337C293.687 80.1317 292.236 82.71 289.982 84.66C287.729 86.5667 284.414 87.52 280.037 87.52ZM280.037 59.31C277.697 59.31 275.769 60.0033 274.252 61.39C272.779 62.7333 271.891 64.7917 271.587 67.565H288.422C288.162 64.705 287.317 62.625 285.887 61.325C284.457 59.9817 282.507 59.31 280.037 59.31Z" fill="black"/>
<path d="M315.14 87.52C310.633 87.52 307.058 86.1767 304.415 83.49C301.815 80.8033 300.515 76.9683 300.515 71.985V69.515C300.515 67.045 300.862 64.8567 301.555 62.95C302.248 61.0433 303.223 59.4183 304.48 58.075C305.737 56.7317 307.275 55.7133 309.095 55.02C310.915 54.3267 312.93 53.98 315.14 53.98C317.047 53.98 318.737 54.24 320.21 54.76C321.727 55.28 323.027 55.995 324.11 56.905C325.237 57.7717 326.147 58.8117 326.84 60.025C327.577 61.2383 328.118 62.5383 328.465 63.925H322.225C321.748 62.7983 320.925 61.8017 319.755 60.935C318.628 60.025 316.982 59.57 314.815 59.57C312.345 59.57 310.352 60.3933 308.835 62.04C307.362 63.6867 306.625 66.1783 306.625 69.515V71.985C306.625 75.2783 307.383 77.77 308.9 79.46C310.417 81.1067 312.388 81.93 314.815 81.93C317.025 81.93 318.693 81.475 319.82 80.565C320.947 79.655 321.748 78.4417 322.225 76.925H328.465C327.815 80.045 326.385 82.6017 324.175 84.595C321.965 86.545 318.953 87.52 315.14 87.52Z" fill="black"/>
<path d="M330.438 54.5H357.088V59.83H346.688V87H340.838V59.83H330.438V54.5Z" fill="black"/>
<path d="M375.006 87.52C372.709 87.52 370.629 87.1733 368.766 86.48C366.946 85.7433 365.386 84.725 364.086 83.425C362.786 82.0817 361.789 80.4567 361.096 78.55C360.403 76.6 360.056 74.4117 360.056 71.985V69.515C360.056 67.1317 360.403 64.9867 361.096 63.08C361.833 61.13 362.851 59.4833 364.151 58.14C365.451 56.7967 367.011 55.7783 368.831 55.085C370.694 54.3483 372.753 53.98 375.006 53.98C377.259 53.98 379.296 54.3483 381.116 55.085C382.979 55.7783 384.561 56.7967 385.861 58.14C387.161 59.44 388.158 61.065 388.851 63.015C389.588 64.9217 389.956 67.0883 389.956 69.515V71.985C389.956 74.4117 389.588 76.5783 388.851 78.485C388.158 80.3917 387.161 82.0167 385.861 83.36C384.561 84.7033 382.979 85.7433 381.116 86.48C379.296 87.1733 377.259 87.52 375.006 87.52ZM375.006 81.93C377.736 81.93 379.881 81.1067 381.441 79.46C383.044 77.77 383.846 75.2783 383.846 71.985V69.515C383.846 66.265 383.044 63.795 381.441 62.105C379.881 60.415 377.736 59.57 375.006 59.57C372.276 59.57 370.109 60.415 368.506 62.105C366.946 63.7517 366.166 66.2217 366.166 69.515V71.985C366.166 75.235 366.946 77.705 368.506 79.395C370.109 81.085 372.276 81.93 375.006 81.93Z" fill="black"/>
<path d="M413.473 87.52C409.183 87.52 405.89 86.1117 403.593 83.295V100H397.743V54.5H402.293L402.878 59.18C404.005 57.4467 405.478 56.1467 407.298 55.28C409.118 54.4133 411.198 53.98 413.538 53.98C415.358 53.98 417.048 54.3267 418.608 55.02C420.212 55.67 421.577 56.6667 422.703 58.01C423.83 59.31 424.718 60.935 425.368 62.885C426.018 64.7917 426.343 67.0017 426.343 69.515V71.985C426.343 74.4983 426.018 76.73 425.368 78.68C424.718 80.5867 423.808 82.2117 422.638 83.555C421.512 84.855 420.147 85.8517 418.543 86.545C416.983 87.195 415.293 87.52 413.473 87.52ZM411.913 81.93C414.513 81.93 416.55 81.1283 418.023 79.525C419.496 77.9217 420.233 75.4083 420.233 71.985V69.515C420.233 66.135 419.496 63.6433 418.023 62.04C416.55 60.3933 414.513 59.57 411.913 59.57C409.573 59.57 407.623 60.3717 406.063 61.975C404.503 63.5783 403.68 65.94 403.593 69.06V71.985C403.593 75.1917 404.373 77.6617 405.933 79.395C407.493 81.085 409.487 81.93 411.913 81.93Z" fill="black"/>
</svg>
