<?xml version="1.0" encoding="utf-8"?>
<!-- Generator: Adobe Illustrator 24.0.3, SVG Export Plug-In . SVG Version: 6.00 Build 0)  -->
<svg version="1.1" id="Layer_1" xmlns="http://www.w3.org/2000/svg" xmlns:xlink="http://www.w3.org/1999/xlink" x="0px" y="0px"
	 viewBox="0 0 100 100" style="enable-background:new 0 0 100 100;" xml:space="preserve">
<style type="text/css">
	.st0{fill:#FFF880;filter:url(#Adobe_OpacityMaskFilter);}
	.st1{mask:url(#mask0_1_);}
	.st2{fill:#FFF880;}
	.st3{fill:#FFF100;}
	.st4{fill:#FFE700;}
	.st5{fill:#FFDD00;}
</style>
<defs>
	<filter id="Adobe_OpacityMaskFilter" filterUnits="userSpaceOnUse" x="0" y="0" width="100" height="100">
		<feColorMatrix  type="matrix" values="1 0 0 0 0  0 1 0 0 0  0 0 1 0 0  0 0 0 1 0"/>
	</filter>
</defs>
<mask maskUnits="userSpaceOnUse" x="0" y="0" width="100" height="100" id="mask0_1_">
	<path class="st0" d="M50,100c27.6,0,50-22.4,50-50S77.6,0,50,0S0,22.4,0,50S22.4,100,50,100z"/>
</mask>
<g class="st1">
	<path class="st2" d="M50,100c27.6,0,50-22.4,50-50S77.6,0,50,0S0,22.4,0,50S22.4,100,50,100z"/>
	<path class="st3" d="M37.7,100c20.8,0,37.7-16.9,37.7-37.7S58.6,24.5,37.7,24.5S0,41.4,0,62.3S16.9,100,37.7,100z"/>
	<path class="st4" d="M25.9,100c14.3,0,25.9-11.6,25.9-25.9S40.2,48.2,25.9,48.2S0,59.8,0,74.1S11.6,100,25.9,100z"/>
	<path class="st5" d="M17.7,100c9.8,0,17.7-7.9,17.7-17.7s-7.9-17.7-17.7-17.7C7.9,64.5,0,72.5,0,82.3S7.9,100,17.7,100z"/>
</g>
</svg>
