<?xml version="1.0" encoding="utf-8"?>
<!-- Generator: Adobe Illustrator 23.1.1, SVG Export Plug-In . SVG Version: 6.00 Build 0)  -->
<svg version="1.1" id="Слой_1" xmlns="http://www.w3.org/2000/svg" xmlns:xlink="http://www.w3.org/1999/xlink" x="0px" y="0px"
	 viewBox="0 0 425.3 100" style="enable-background:new 0 0 425.3 100;" xml:space="preserve">
<style type="text/css">
	.st0{fill:#FFF880;}
	.st1{fill:#FFF100;}
	.st2{fill:#FFE700;}
	.st3{fill:#FFDD00;}
</style>
<path d="M117.2,41.5h14.6c5.7,0,9.8,1.1,12.2,3.2c2.5,2.1,3.7,5.1,3.7,8.9c0,2.1-0.5,4-1.4,5.7c-1,1.6-2.4,3-4.4,4
	c2.5,1,4.3,2.4,5.4,4.3c1.2,1.9,1.8,4.1,1.8,6.6c0,4.1-1.2,7.3-3.7,9.5s-6.5,3.3-12.2,3.3h-15.9V41.5H117.2z M123.3,66.3v15.1h9.8
	c3.5,0,6-0.6,7.4-1.9s2.1-3.1,2.1-5.7c0-2.5-0.7-4.4-2.1-5.7c-1.4-1.3-3.9-1.9-7.4-1.9L123.3,66.3L123.3,66.3z M123.3,47.1v13.8h8.5
	c3.5,0,6-0.6,7.4-1.8s2.1-2.9,2.1-5.1s-0.7-3.9-2.1-5.1c-1.4-1.2-3.9-1.8-7.4-1.8C131.8,47.1,123.3,47.1,123.3,47.1z"/>
<path d="M179.3,61.5l-3.6,6.7l-11,18.8h-7.5V54.5h5.9V80l3.6-6.7l11-18.8h7.5V87h-5.8L179.3,61.5L179.3,61.5z"/>
<path d="M217,73.1h-16.2V87h-5.9V54.5h5.9v13.3H217V54.5h5.8V87H217V73.1z"/>
<path d="M232.6,54.5h12.3c4.4,0,7.5,0.8,9.4,2.5c1.9,1.6,2.9,3.8,2.9,6.6c0,1.3-0.3,2.6-1,3.7s-1.7,2.1-3.1,2.9
	c1.8,0.7,3.2,1.8,4,3.1c0.9,1.3,1.3,2.8,1.3,4.4c0,2.9-1,5.3-2.9,7c-1.9,1.6-5,2.5-9.4,2.5h-13.6V54.5H232.6z M238.4,73v8.7h7.8
	c2.3,0,4-0.4,4.9-1.1c0.9-0.8,1.4-1.9,1.4-3.3s-0.5-2.4-1.4-3.2c-0.9-0.7-2.5-1.1-4.9-1.1H238.4z M238.4,59.8v8.1h6.5
	c2.4,0,4-0.3,4.9-1s1.4-1.7,1.4-3c0-1.3-0.5-2.2-1.4-2.9s-2.5-1.1-4.9-1.1h-6.5V59.8z"/>
<path d="M279,87.5c-2.2,0-4.2-0.3-6-1s-3.3-1.8-4.6-3.1c-1.3-1.3-2.3-3-3-4.9s-1-4.1-1-6.5v-2.5c0-2.4,0.3-4.5,1-6.4
	s1.8-3.5,3.1-4.9c1.3-1.3,2.8-2.4,4.6-3.1c1.8-0.7,3.7-1.1,5.9-1.1c2.2,0,4.1,0.4,5.9,1.1c1.8,0.7,3.4,1.7,4.6,3.1
	c1.3,1.3,2.3,3,3,4.9s1.1,4.1,1.1,6.4v3.1h-23.1c0.1,3.2,0.9,5.5,2.5,7.2c1.6,1.6,3.6,2.4,6,2.4c2.6,0,4.4-0.5,5.6-1.4
	s2.1-2.2,2.7-3.9h6c-0.6,3.2-2.1,5.8-4.4,7.7C286.7,86.6,283.4,87.5,279,87.5z M279,59.3c-2.3,0-4.3,0.7-5.8,2.1
	c-1.5,1.3-2.4,3.4-2.7,6.2h16.8c-0.3-2.9-1.1-4.9-2.5-6.2C283.5,60,281.5,59.3,279,59.3z"/>
<path d="M314.1,87.5c-4.5,0-8.1-1.3-10.7-4s-3.9-6.5-3.9-11.5v-2.5c0-2.5,0.3-4.7,1-6.6s1.7-3.5,2.9-4.9c1.3-1.3,2.8-2.4,4.6-3.1
	c1.8-0.7,3.8-1,6-1c1.9,0,3.6,0.3,5.1,0.8s2.8,1.2,3.9,2.1c1.1,0.9,2,1.9,2.7,3.1c0.7,1.2,1.3,2.5,1.6,3.9h-6.2
	c-0.5-1.1-1.3-2.1-2.5-3c-1.1-0.9-2.8-1.4-4.9-1.4c-2.5,0-4.5,0.8-6,2.5c-1.5,1.6-2.2,4.1-2.2,7.5V72c0,3.3,0.8,5.8,2.3,7.5
	c1.5,1.6,3.5,2.5,5.9,2.5c2.2,0,3.9-0.5,5-1.4s1.9-2.1,2.4-3.6h6.2c-0.6,3.1-2.1,5.7-4.3,7.7C321,86.5,318,87.5,314.1,87.5z"/>
<path d="M329.4,54.5h26.7v5.3h-10.4V87h-5.8V59.8h-10.4v-5.3H329.4z"/>
<path d="M374,87.5c-2.3,0-4.4-0.3-6.2-1c-1.8-0.7-3.4-1.8-4.7-3.1c-1.3-1.3-2.3-3-3-4.9c-0.7-2-1-4.1-1-6.6v-2.5
	c0-2.4,0.3-4.5,1-6.4c0.7-2,1.8-3.6,3.1-4.9s2.9-2.4,4.7-3.1c1.9-0.7,3.9-1.1,6.2-1.1c2.3,0,4.3,0.4,6.1,1.1
	c1.9,0.7,3.4,1.7,4.7,3.1c1.3,1.3,2.3,2.9,3,4.9c0.7,1.9,1.1,4.1,1.1,6.5V72c0,2.4-0.4,4.6-1.1,6.5s-1.7,3.5-3,4.9
	c-1.3,1.3-2.9,2.4-4.7,3.1C378.3,87.2,376.3,87.5,374,87.5z M374,81.9c2.7,0,4.9-0.8,6.4-2.5c1.6-1.7,2.4-4.2,2.4-7.5v-2.5
	c0-3.2-0.8-5.7-2.4-7.4s-3.7-2.5-6.4-2.5c-2.7,0-4.9,0.8-6.5,2.5c-1.6,1.6-2.3,4.1-2.3,7.4V72c0,3.2,0.8,5.7,2.3,7.4
	C369.1,81.1,371.3,81.9,374,81.9z"/>
<path d="M412.5,87.5c-4.3,0-7.6-1.4-9.9-4.2V100h-5.8V54.5h4.5l0.6,4.7c1.1-1.7,2.6-3,4.4-3.9s3.9-1.3,6.2-1.3c1.8,0,3.5,0.3,5.1,1
	c1.6,0.6,3,1.6,4.1,3c1.1,1.3,2,2.9,2.7,4.9c0.6,1.9,1,4.1,1,6.6V72c0,2.5-0.3,4.7-1,6.7c-0.7,1.9-1.6,3.5-2.7,4.9
	c-1.1,1.3-2.5,2.3-4.1,3C416,87.2,414.3,87.5,412.5,87.5z M410.9,81.9c2.6,0,4.6-0.8,6.1-2.4s2.2-4.1,2.2-7.5v-2.5
	c0-3.4-0.7-5.9-2.2-7.5s-3.5-2.5-6.1-2.5c-2.3,0-4.3,0.8-5.9,2.4c-1.6,1.6-2.4,4-2.5,7.1v3c0,3.2,0.8,5.7,2.3,7.4
	C406.5,81.1,408.5,81.9,410.9,81.9z"/>
<g>
	<path class="st0" d="M50,100c27.6,0,50-22.4,50-50S77.6,0,50,0S0,22.4,0,50S22.4,100,50,100z"/>
	<path class="st1" d="M37.7,24.5c-18.9,0-34.5,13.9-37.3,32c0,0,0,0,0,0c1.2,9.1,4.8,17.4,10.2,24.3c0,0,0,0,0,0
		c2.5,3.2,5.3,6,8.5,8.5c0,0,0,0,0,0c6.9,5.4,15.2,9,24.3,10.2c18.1-2.8,31.9-18.4,31.9-37.3C75.4,41.5,58.6,24.5,37.7,24.5z"/>
	<path class="st2" d="M25.9,48.2c-10.7,0-20,6.5-23.9,15.9C6.8,80.4,19.6,93.2,35.9,98c9.3-3.9,15.9-13.1,15.9-23.9
		C51.8,59.8,40.2,48.2,25.9,48.2z"/>
	<path class="st3" d="M17.7,64.6c-5.3-0.1-10,2.3-13.3,6c5,11.1,13.9,20,25,25c3.7-3.2,6-8,6-13.3C35.4,72.5,27.5,64.6,17.7,64.6z"
		/>
</g>
</svg>
